<svg xmlns="http://www.w3.org/2000/svg" viewBox="0 0 700 550">
  <path fill="currentColor" d="M245.38 236.89c3.1445-8.8828 6.5898-17.535 10.332-25.965l152.54 152.53c-8.4297 3.7383-17.086 7.1836-25.973 10.332zm-20.137 11.602c7.9062-26.48 18.707-52.008 32.211-76.117l-86.34 1.3164-57.32 79.301 71.156-26.801c2.293-.85938 4.8633-.58594 6.9258.74609zm73.148 125.82-53.535-53.535c-27.309 18.102-41.262 50.801-39.66 93.191 42.383 1.6055 75.086-12.348 93.195-39.656zm-66.762-88.645 101.87 101.87c11.059-2.3594 21.828-5.1367 32.309-8.3359l-125.84-125.84c-3.1758 10.48-5.957 21.25-8.3359 32.309zm160.61 141.62c1.332 2.0586 1.6055 4.6289.74609 6.9258l-26.805 71.16 79.32-57.297 1.3164-86.34h-.003906c-24.113 13.492-49.641 24.285-76.117 32.184zm221.04-421.4c.81641 164.66-68.477 289.61-190.18 350.55l-160.39-160.39c60.977-121.69 185.94-190.98 350.57-190.16zm-106.11 106.11c-12.773-12.773-30.098-19.953-48.164-19.953-18.062 0-35.391 7.1758-48.164 19.949-12.773 12.773-19.953 30.098-19.953 48.164s7.1797 35.391 19.953 48.164c12.773 12.773 30.102 19.949 48.164 19.949 18.066 0 35.391-7.1797 48.164-19.953 12.758-12.781 19.922-30.102 19.922-48.16 0-18.055-7.1602-35.375-19.914-48.16zm-10.941 10.941h.003906c-9.875-9.875-23.262-15.422-37.223-15.422-13.961 0-27.352 5.5469-37.227 15.418-9.8711 9.8711-15.418 23.262-15.418 37.223 0 13.961 5.5469 27.352 15.418 37.223 9.875 9.8711 23.266 15.418 37.227 15.418 13.961 0 27.348-5.5469 37.223-15.422 9.9141-9.8477 15.488-23.242 15.488-37.219.003906-13.973-5.5703-27.371-15.484-37.219zm-334.12 206.37-26.797 26.797c-3.0234 3.0234-3.0234 7.9219 0 10.941 3.0195 3.0234 7.918 3.0234 10.941 0l26.797-26.797c3.0195-3.0195 3.0195-7.918 0-10.941-3.0234-3.0195-7.9219-3.0195-10.941 0zm79.43 144.21-50.789 50.781c-3.0195 3.0273-3.0156 7.9336.011718 10.953 3.0312 3.0195 7.9336 3.0156 10.953-.011718l50.781-50.789h.003906c3.0195-3.0273 3.0117-7.9258-.011719-10.945-3.0273-3.0195-7.9297-3.0156-10.949.011719zm-80.262-19.172-56.113 56.137c-3.0195 3.0195-3.0195 7.918 0 10.941 3.0234 3.0195 7.9219 3.0195 10.941 0l56.113-56.113c3.0195-3.0195 3.0195-7.918 0-10.941-3.0195-3.0195-7.918-3.0195-10.941 0zm139.71-21.297-14.223 14.223h-.003906c-2.9219 3.0391-2.875 7.8555.10547 10.84 2.9805 2.9805 7.7969 3.0273 10.836.10938l14.23-14.23c2.9219-3.0391 2.8711-7.8594-.10938-10.836-2.9805-2.9805-7.8008-3.0273-10.836-.10547zm-191.58 32.965 49.785-49.789c3.0195-3.0195 3.0195-7.918 0-10.941-3.0195-3.0195-7.918-3.0195-10.941 0l-49.785 49.789c-3.0234 3.0195-3.0234 7.918 0 10.941 3.0195 3.0195 7.918 3.0195 10.941 0zm4.7617-58.73c1.4961-1.4414 2.3555-3.4258 2.375-5.5039.019532-2.0781-.80078-4.0781-2.2695-5.5508-1.4688-1.4688-3.4727-2.2852-5.5508-2.2617-2.0781.019531-4.0625.875-5.5 2.375l-14.227 14.23c-3.0195 3.0195-3.0195 7.918 0 10.941 3.0234 3.0195 7.9219 3.0195 10.941 0zm33.895 119.39-14.23 14.223c-2.9219 3.0391-2.875 7.8555.10547 10.836 2.9766 2.9844 7.7969 3.0312 10.836.10938l14.242-14.238c3.0195-3.0234 3.0195-7.9219 0-10.941-3.0234-3.0234-7.9219-3.0234-10.941 0z"/>
</svg>
