<svg xmlns="http://www.w3.org/2000/svg" viewBox="0 0 700 550">
  <path fill="currentColor" d="M553.28 95.703c0 20.754-16.824 37.578-37.578 37.578-20.75 0-37.574-16.824-37.574-37.578 0-20.75 16.824-37.574 37.574-37.574 20.754 0 37.578 16.824 37.578 37.574M434 67.984c0 8.3828-6.793 15.176-15.176 15.176-8.3828 0-15.176-6.793-15.176-15.176s6.793-15.176 15.176-15.176c8.3828 0 15.176 6.793 15.176 15.176M326.82 267.79c0 11.629-9.4258 21.055-21.055 21.055-11.629 0-21.059-9.4258-21.059-21.055 0-11.629 9.4297-21.059 21.059-21.059 11.629 0 21.055 9.4297 21.055 21.059"/>
  <path fill="currentColor" d="m519.62 203.79-57.289 234.47c7.8945 2.4062 15.566 4.6484 22.961 6.4961 45.754 11.199 71.121 7.9531 75.32 0 2.3516-4.3672 0-16.07-14.727-34.719l-.003906-.003906c-14.723-17.781-31.301-33.941-49.445-48.215-4.0742 28.145-15.879 54.609-34.105 76.441zM216.27 342.05c.39453 23.992 7.5156 47.391 20.551 67.539 30.742 15.68 48.551 19.152 68.375 19.152v-.003906c15.5.035156 30.879-2.6953 45.418-8.0625-14.672-7-29.062-14.559-43.902-22.398h-.003906c-31.203-16.988-61.398-35.758-90.438-56.227zm162.4 63.895v.003906c34.566-24.062 55.184-63.5 55.215-105.62.44531-25.031-7.1523-49.547-21.672-69.945-35.73-21.789-79.836-24.805-118.2-8.0859-38.363 16.723-66.18 51.082-74.547 92.086 31.598 22.809 64.672 43.5 99.008 61.938 20.16 10.922 40.266 20.719 59.922 29.625m-132.16-182.5c-25.25-9.2305-51.453-15.617-78.117-19.043-24.977-2.5195-36.734 1.9023-39.199 6.4414-4.2031 7.5586 6.8867 30.855 41.27 63.055 8.3984 7.8945 17.527 15.902 27.664 23.969 8.3516-29.023 25.062-54.945 48.047-74.535m24.977-17.137c22.598-12.719 48.102-19.375 74.031-19.32 39.082.023437 76.672 14.988 105.07 41.828 28.402 26.84 45.465 63.527 47.695 102.54 25.039 18.41 47.773 39.77 67.703 63.617 19.824 25.312 25.535 46.09 16.801 61.602-7.2812 13.441-23.129 20.16-47.32 20.16-18.805-.5-37.488-3.207-55.664-8.0664-11.703-2.8555-23.969-6.6094-36.793-10.863-33.258 27.656-76.664 39.945-119.48 33.832-42.82-6.1133-81.051-30.062-105.24-65.918-16.891-25.152-25.898-54.77-25.871-85.066 0-4.8711.39062-9.9102.83984-14.672-14.559-11.199-27.664-22.398-39.199-33.602-42.617-40.262-58.129-71.34-46.258-93.238 8.7383-16.129 30.016-22.566 63.617-19.262 34.371 4.625 68.039 13.484 100.24 26.375"/>
  <path fill="currentColor" d="M366.69 268.52c0 5.8164-4.7148 10.527-10.527 10.527-5.8164 0-10.527-4.7109-10.527-10.527 0-5.8125 4.7109-10.527 10.527-10.527 5.8125 0 10.527 4.7148 10.527 10.527"/>
</svg>
