<svg xmlns="http://www.w3.org/2000/svg" viewBox="0 0 700 550">
  <path fill="currentColor" d="M433.91 363.74c22.285-22.262 34.812-52.465 34.824-83.965.011719-31.496-12.492-61.711-34.762-83.988s-52.477-34.793-83.977-34.793-61.707 12.516-83.977 34.793c-22.27 22.277-34.773 52.492-34.762 83.988.011719 31.5 12.539 61.703 34.824 83.965 22.289 22.195 52.461 34.656 83.914 34.656s61.625-12.461 83.914-34.656z"/>
  <path fill="currentColor" d="M365.31 117.86c55.516 5.2734 104.46 38.617 129.69 88.355 25.223 49.734 23.215 108.92-5.3281 156.83-28.543 47.906-79.637 77.855-135.38 79.348-6.8242.19141-12.254 5.7773-12.25 12.602.14063 6.8281 5.7695 12.262 12.598 12.164 47.48-1.6914 92.551-21.32 126.12-54.934s53.152-78.711 54.785-126.19c1.6289-47.48-14.805-93.812-45.992-129.65-31.188-35.84-74.805-58.52-122.05-63.461h-2.2734c-6.6914.16406-12.152 5.3984-12.602 12.074-.25 6.5742 4.8086 12.137 11.375 12.512z"/>
  <path fill="currentColor" d="M350 513.62c60.898.375 119.54-23.027 163.45-65.227 43.906-42.203 69.617-99.867 71.656-160.73 2.043-60.867-19.746-120.12-60.73-165.17-40.984-45.047-97.926-72.324-158.71-76.031-3.3203-.125-6.5547 1.0703-8.9883 3.3242-2.4375 2.2578-3.8789 5.3906-4.0078 8.707-.26562 6.9102 5.1211 12.73 12.031 12.996 44.992 3.207 87.73 20.898 121.83 50.43 34.094 29.527 57.711 69.305 67.312 113.38 9.6016 44.07 4.6719 90.062-14.051 131.1-18.723 41.039-50.23 74.906-89.809 96.539-39.578 21.633-85.098 29.867-129.75 23.469-44.648-6.3984-86.023-27.086-117.93-58.961-4.8828-4.7109-12.617-4.7109-17.5 0-4.625 4.918-4.625 12.582 0 17.5 21.641 21.785 47.379 39.07 75.734 50.859 28.352 11.789 58.758 17.848 89.465 17.828z"/>
  <path fill="currentColor" d="M548.1 81.637C499.354 32.867 434.33 3.801 365.49 0c-6.668-.097656-12.188 5.1484-12.426 11.812-.39844 6.8984 4.832 12.832 11.727 13.301 66.086 3.8281 128.1 33.188 172.94 81.887 44.84 48.695 69 112.91 67.379 179.09-1.6211 66.18-28.902 129.13-76.078 175.57-47.172 46.441-110.55 72.727-176.75 73.312-66.195.58203-130.02-24.582-178.01-70.184-47.984-45.602-76.371-108.07-79.16-174.21-.42188-6.8828-6.2305-12.188-13.125-11.984-3.3359.12891-6.4805 1.5742-8.75 4.0234-2.168 2.3945-3.3555 5.5195-3.3242 8.75 2.6953 60.84 25.152 119.14 63.969 166.07 38.812 46.926 91.871 79.918 151.12 93.977 59.254 14.059 121.48 8.4141 177.23-16.078 55.758-24.492 102.01-66.492 131.75-119.64 29.738-53.148 41.336-114.54 33.039-174.87-8.2969-60.328-36.035-116.31-79.016-159.46z"/>
</svg>
