<svg xmlns="http://www.w3.org/2000/svg" viewBox="0 0 700 550">
  <path fill="currentColor" d="M363.83 56.004c-10.312 0-18.848 7.1758-21.266 16.773-2.1367-.0625-4.2461-.17188-6.3984-.17188-51.707 0-99.223 18.207-136.41 48.586-3.668-2.6953-8.1016-4.3242-12.969-4.3242-12.156 0-22.129 9.9727-22.129 22.133 0 4.8633 1.6289 9.3008 4.3242 12.969-30.379 37.191-48.582 84.711-48.582 136.42 0 57.41 22.516 109.54 59.129 148.18-2.707 4.3672-3.4336 9.8398-3.8047 12.277 0 12.156 9.9727 22.133 22.129 22.133 5.6875 0 10.762-2.3125 14.695-5.8789 35.023 24.508 77.656 38.902 123.62 38.902 119.1 0 215.77-96.504 215.77-215.61 0-53.441-19.469-102.34-51.695-140.05 4.6562-7.5742 7.4336-16.422 7.4336-25.938 0-27.438-22.359-49.797-49.793-49.797-14.949 0-28.379 6.6367-37.516 17.117-11.02-4.6797-22.539-8.6016-34.406-11.41-1.0625-14.957-11.93-21.652-22.129-22.305zm0 11.066c6.1758 0 11.066 4.8906 11.066 11.066s-4.8867 11.066-11.066 11.066c-6.1758 0-11.066-4.8906-11.066-11.066s4.8867-11.066 11.066-11.066zm-27.664 16.426c2.1445 0 4.2695.10547 6.3984.17188 2.4727 9.5156 11.012 16.598 21.266 16.598 8.1914 0 15.363-4.5664 19.191-11.238 10.727 2.5117 21.121 5.7305 31.121 9.8555-3.793 7.0234-6.0508 14.996-6.0508 23.516 0 27.438 22.359 49.797 49.793 49.797 13.891 0 26.57-5.6484 35.617-14.871 29.551 35.516 47.371 81.223 47.371 131.06 0 113.13-91.582 204.72-204.7 204.72-43.754 0-84.145-13.832-117.39-37.176.75391-2.2188 1.2109-4.625 1.2109-7.0898 0-12.156-9.9727-22.133-22.129-22.133-3.6328 0-6.9922 1.0195-10.027 2.5938-34.852-36.691-56.363-86.254-56.363-140.92 0-49.047 17.277-94.07 45.988-129.33 2.8359 1.3281 6.0156 2.0742 9.3359 2.0742 12.156 0 22.129-9.9766 22.129-22.133 0-3.3203-.74609-6.5-2.0742-9.3359 35.242-28.801 80.23-46.164 129.32-46.164zm121.71.17188c21.453 0 38.727 17.277 38.727 38.73 0 21.457-17.273 38.73-38.727 38.73-21.453 0-38.727-17.277-38.727-38.73 0-21.457 17.273-38.73 38.727-38.73zm-271.09 44.262c6.1758 0 11.066 4.8906 11.066 11.066 0 6.1758-4.8867 11.066-11.066 11.066-6.1758 0-11.066-4.8906-11.066-11.066 0-6.1758 4.8867-11.066 11.066-11.066zm370.68 0c-12.156 0-22.129 9.9727-22.129 22.133 0 12.156 9.9727 22.133 22.129 22.133s22.129-9.9727 22.129-22.133c0-12.156-9.9727-22.133-22.129-22.133zm0 11.066c6.1758 0 11.066 4.8906 11.066 11.066s-4.8867 11.066-11.066 11.066c-6.1758 0-11.066-4.8906-11.066-11.066s4.8867-11.066 11.066-11.066zm-221.3 16.598c-73.266 0-132.78 59.52-132.78 132.79 0 73.273 59.512 132.62 132.78 132.62 73.266 0 132.78-59.344 132.78-132.62 0-73.273-59.512-132.79-132.78-132.79zm215.77 271.12c-12.156 0-22.129 9.9727-22.129 22.133 0 12.156 9.9727 22.133 22.129 22.133s22.129-9.9727 22.129-22.133c0-12.156-9.9727-22.133-22.129-22.133zm-354.08 11.066c6.1758 0 11.066 4.8867 11.066 11.066 0 6.1758-4.8867 11.066-11.066 11.066-6.1758 0-11.066-4.8867-11.066-11.066 0-6.1758 4.8867-11.066 11.066-11.066zm354.08 0c6.1758 0 11.066 4.8867 11.066 11.066 0 6.1758-4.8867 11.066-11.066 11.066-6.1758 0-11.066-4.8867-11.066-11.066 0-6.1758 4.8867-11.066 11.066-11.066z"/>
</svg>
