<svg xmlns="http://www.w3.org/2000/svg" viewBox="0 0 680 550">
    <path fill="currentColor" d="M612.59 249.03c1.3281-.82422 2.1172-2.2969 2.0625-3.8594-.050782-1.5664-.9375-2.9805-2.3203-3.7148-1.3828-.73047-3.0508-.66797-4.375.16797s-2.0977 2.3164-2.0312 3.8789c.17969 1.4922 1.0781 2.8008 2.4062 3.5039 1.332.70703 2.918.71484 4.2578.023438zM509.1 368.76c1.4023.35156 2.8867-.074219 3.8906-1.1172 1.0039-1.043 1.3672-2.543.96094-3.9336-.41016-1.3867-1.5312-2.4492-2.9375-2.7852-1.4062-.33203-2.8867.11328-3.875 1.1719-.85547 1.082-1.1328 2.5117-.74219 3.8359.38672 1.3242 1.3945 2.3789 2.7031 2.8281zm98-82.6c.40625-1.2422.089844-2.6094-.82031-3.5469-.90625-.94141-2.2617-1.3008-3.5156-.9375-1.2578.36328-2.207 1.3945-2.4727 2.6719-.26562 1.2812.19922 2.6055 1.207 3.4375.92188.66797 2.1016.87109 3.1953.55469s1.9805-1.1211 2.4062-2.1797zm-439.38 74.2c-1.457-.40625-2.3906-1.8359-2.1797-3.3359.21484-1.5 1.5039-2.6133 3.0195-2.5977.88281.019531 1.7148.41797 2.2812 1.0938.57031.67578.82031 1.5625.69141 2.4336-.12891.875-.62891 1.6484-1.3672 2.1328-.73828.48047-1.6484.62109-2.5.38672zm17.69-175.11c-.66797-.72656-1.6719-1.0508-2.6406-.84375-.96875.20312-1.7578.90625-2.0742 1.8438-.31641.9375-.11328 1.9727.53125 2.7227.64844.75 1.6445 1.1016 2.6172.92578.94531-.26172 1.6992-.97656 2.0117-1.9062.31641-.93359.14844-1.957-.44531-2.7422zM590.8 329.84c.8125.75 1.1523 1.8828.88672 2.957-.26953 1.0742-1.1055 1.918-2.1758 2.1953-1.0586-.72266-1.5586-2.0195-1.2617-3.2656.30078-1.2422 1.3359-2.1719 2.6055-2.3359v.44922zM116.37 206.81c-.40234-.78516-.34375-1.7266.15234-2.4531.49219-.73047 1.3477-1.1289 2.2227-1.043.87891.082031 1.6367.64062 1.9844 1.4531.34375.80859.21875 1.7422-.32812 2.4336-1.2383 1.0156-3.0625.83984-4.0859-.39062zm421.74 4.7c-.94141-.38672-1.5547-1.3008-1.5586-2.3164-.007813-1.0156.60156-1.9375 1.5352-2.332.9375-.39844 2.0195-.19141 2.7461.51562.72656.71094.95312 1.7891.57812 2.7344-.71484 1.0977-2.0078 1.668-3.3008 1.4531z"/>
    <path fill="currentColor" d="M102.59 338.3c-.82031.70703-2.0391.70703-2.8594 0v-2.8008c1.5664-1.5664 4.5938 1.3984 2.9688 2.9688z"/>
    <path fill="currentColor" d="M566.44 344.29c-.61328.35547-1.3711.35938-1.9883.015626-.62109-.34375-1.0156-.98828-1.0391-1.6953.097657-.69922.51953-1.3125 1.1367-1.6523.61719-.34375 1.3594-.375 2-.085937.73828 1.1211.73828 2.5742 0 3.6953zm-54.99-141.34c-.80469.22656-1.668.082032-2.3516-.39453-.18359-.76953-.023437-1.582.4375-2.2266.46484-.64453 1.1797-1.0547 1.9688-1.1328.69141 1.1758.69141 2.6328 0 3.8086z"/>
    <path fill="currentColor" d="M560.89 236.66c16.801 9.8008 34.105 25.426 32.09 44.801-1.457 13.945-12.77 24.695-24.191 32.816-21.215 15.008-45.258 25.543-70.672 30.965-11.199 2.4062-24.414 4.7031-30.52 14.617-27.98 44.305-76.41 71.508-128.8 72.352-52.453-.28906-101.21-27.039-129.64-71.117-6.9453-11.199-21.617-13.496-34.383-16.352v-.003906c-21.367-4.8281-41.688-13.48-59.977-25.535-13.719-8.9609-27.16-21.504-28.84-37.801-2.2383-22.398 17.809-39.984 37.297-50.68 18.801-10.203 38.93-17.742 59.805-22.398 10.695-2.4062 22.793-4.8164 28.895-13.945h.003907c26.738-39.633 70.691-64.234 118.46-66.301 47.77-2.0625 93.684 18.652 123.74 55.828 6.9453 8.625 13.215 18.258 22.398 24.246v.003906c.17969-2.1797 1.3516-4.1562 3.1758-5.3594 1.8281-1.1992 4.1055-1.4961 6.1758-.80078l.61719 7c26.129 4.9609 51.219 14.336 74.199 27.719m-88.926 98.281c18.492-44.211 13.625-94.746-12.969-134.61-26.594-39.867-71.379-63.773-119.3-63.684-47.91.078126-92.598 24.129-119.05 64.07-26.457 39.941-31.164 90.477-12.543 134.62.97656 2.7969 2.5664 5.3398 4.6445 7.4492 3.2695 2.3984 7.1562 3.8164 11.203 4.0898 75.52 12.758 152.57 13.664 228.37 2.6875 4.8516-.27344 9.5352-1.8594 13.551-4.5938 2.9297-2.7695 5.1367-6.2109 6.4414-10.023m-51.016 60.594c11.664-8.2617 22.09-18.145 30.969-29.348 2.9883-3.7344 5.8047-7.6172 8.457-11.648l-.003906.003906c-79.898 13.141-161.37 13.594-241.41 1.3438 20.973 32.715 54.398 55.449 92.531 62.938 38.137 7.4844 77.676-.92969 109.46-23.289m55.328-51.238v-.003906c28.934-4.1992 56.801-13.891 82.094-28.559 15.23-8.8477 31.023-22.68 29.566-40.207-1.1758-14.559-13.945-25.258-26.375-32.93-27.086-16.695-57.352-27.566-88.871-31.922 21.5 41.664 22.82 90.859 3.5859 133.62m-359.24-35.559c24.449 16.062 51.902 26.996 80.695 32.145-16.637-40.023-16.434-85.066.5625-124.94-27.93 5.3242-54.676 15.621-78.961 30.406-12.938 8.3984-25.871 21.672-23.352 36.902 1.8477 11.09 11.535 19.098 21.055 25.484z"/>
    <path fill="currentColor" d="M570.75 216.66c-.55078.47266-1.3203.58203-1.9766.28125-.66016-.30078-1.0781-.95703-1.0781-1.6797s.41797-1.3789 1.0781-1.6797c.65625-.30469 1.4258-.19531 1.9766.27734zM272.27 334.27c-1.1523.875-2.6953 1.0508-4.0117.44531-1.3164-.60156-2.1953-1.8828-2.2812-3.3281-.085938-1.4453.62891-2.8203 1.8633-3.5781 1.2383-.75781 2.7891-.76953 4.0352-.035157.95312.76562 1.5312 1.9062 1.5859 3.1289.050781 1.2188-.42188 2.4062-1.3047 3.2539zm158.43 6.43c2.0352-.67188 4.2734 0 5.6016 1.6797.95312 1.5742.83594 3.5703-.29297 5.0195-1.1328 1.4492-3.043 2.0469-4.8008 1.5039-1.7539-.54297-2.9922-2.1172-3.1055-3.9531-.11328-1.8359.92188-3.5508 2.5977-4.3047zm-35.9-17.13c-.58984-.8125-.73047-1.8711-.36719-2.8086.35938-.94141 1.1758-1.6328 2.1602-1.8359 1.1523.73438 1.957 1.9062 2.2383 3.2461-.28125.85156-.91797 1.5391-1.7461 1.8867-.82813.34375-1.7656.30859-2.5664-.09375zm-32.42 19.04 2.3516 2.3516c-.83984 1.1719-2.1055 1.9766-3.5273 2.2383-.90625-.54297-1.375-1.5977-1.1758-2.6367.19922-1.0391 1.0273-1.8438 2.0742-2.0117zm-26.16-1.4c-.57422.75-1.418 1.2539-2.3516 1.4023-.76172-.56641-1.2695-1.4141-1.3984-2.3516.71875-1.0898 2.0195-1.6406 3.3047-1.4023.45312.69531.61328 1.5391.44531 2.3516zm-95.42-13.78c.76172.5625 1.2695 1.4102 1.3984 2.3516-.71875 1.0859-2.0195 1.6367-3.3047 1.3984-.46484-.71094-.51172-1.625-.11328-2.3789.39453-.75391 1.168-1.2383 2.0195-1.2617zm22.29 48.16c.97656-.035156 1.8125.70312 1.9023 1.6797-.82031 1.1289-1.9766 1.9727-3.3047 2.4062-1.0312-.80859-1.5273-2.125-1.2891-3.4141l2.8008-1.0078v.28125zm59.75 1.74c.22266.97656-.14453 1.9922-.9375 2.6055-.79297.61328-1.8672.71094-2.7578.25v-2.9102c1.1719-.70703 2.6367-.70703 3.8086 0zm-18.37.28c1.625.89453-.33594 3.9219-1.793 2.8008v-.003906c-.63281-.53125-.87891-1.3984-.61719-2.1836.6875-.47266 1.543-.63281 2.3516-.44531zm81.03 7.67c.51562 2.7852-.67188 5.6133-3.0234 7.1953-2.3555 1.582-5.4219 1.6172-7.8086.085938s-3.6367-4.332-3.1797-7.1289c.45312-2.7969 2.5273-5.0586 5.2773-5.7539 3.9531-.83594 7.8438 1.6602 8.7344 5.6016zM511.22 322c.49219-.99219 1.3672-1.7461 2.4219-2.0859 1.0547-.33594 2.2031-.23047 3.1797.29297 1.957 1.2344 3.2383 3.3008 3.4727 5.6016.40234 1.4102.15625 2.9297-.67188 4.1445-1.3438 1.2812-3.4023 1.4414-4.9297.39062-1.4531-1.0781-2.5312-2.5859-3.0781-4.3125-.58984-1.1992-.72656-2.5703-.39453-3.8633zm-28.05-100.69c.56641-.39844 1.2695-.54297 1.9492-.40625.67578.13672 1.2695.54688 1.6367 1.1328.64062 1.2578.20312 2.8008-1.0117 3.5273-2.0703 1.1758-3.8086-2.4062-2.8008-4.5938zm19.82 5.32 3.1914 1.5664c.38281.92578.17188 1.9883-.53906 2.6914-.70703.70312-1.7734.91016-2.6914.52344-.92188-.38672-1.5195-1.293-1.5078-2.293.007813-1 .61719-1.8945 1.5469-2.2656zm31.31 75.77c-.88281-.53516-1.332-1.5664-1.1328-2.5781.19922-1.0117 1.0078-1.793 2.0273-1.957 1.1562.77344 2.0078 1.918 2.4102 3.25-.71875 1.0977-2.0117 1.668-3.3047 1.4531zm15.17-39.59c1.0547 1.0039 2.5703 1.3711 3.9688.96094 1.3984-.41016 2.4727-1.5391 2.8203-2.9531.34375-1.418-.089844-2.9141-1.1445-3.9219-1.0508-1.0078-2.5625-1.3789-3.9648-.97266-1.3203.50391-2.3086 1.6289-2.6445 3.0039-.33594 1.3711.023438 2.8242.96484 3.8828zm16.07 20.21c1.7812.63672 2.7266 2.5742 2.1289 4.3672-1.3594.73047-3.0469.32031-3.918-.94922-.35156-.64844-.33984-1.4297.023438-2.0664.36328-.63672 1.0312-1.043 1.7656-1.0703zm-64.34 36.85c.78516-.24219 1.6367-.097656 2.2969.39453.21875.76953.085937 1.6016-.37109 2.2617-.45312.66016-1.1797 1.082-1.9805 1.1523-.69141-1.1953-.69141-2.668 0-3.8633zm26.49-82.37c-.80469.25781-1.4102.92578-1.5859 1.7539-.17578.82422.10547 1.6836.73828 2.2461.63281.55859 1.5156.73828 2.3164.46875.80078-.26953 1.3945-.94922 1.5547-1.7812.097656-.80078-.20703-1.5977-.80859-2.1328-.60156-.53516-1.4297-.74219-2.2148-.55469zm-361.26 10.75c-1.1211 1.0625-3.2461-.55859-2.8008-2.0156.33203-.70312.94531-1.2383 1.6914-1.4727.74219-.23047 1.5508-.14453 2.2266.24219.51562.56641.72266 1.3477.55469 2.0938s-.6875 1.3633-1.3945 1.6602zM148.4 296.8c-.20313-1.2422-1.0547-2.2773-2.2266-2.7227-1.1758-.44531-2.5-.23438-3.4766.55859-.97656.79297-1.457 2.043-1.2617 3.2852.19531 1.2422 1.0352 2.2852 2.207 2.7422 1.1719.33203 2.4336.070313 3.3789-.69922.94922-.76953 1.4609-1.9492 1.3789-3.1641zm39.65-67.87 2.4062-.39063.003906-.003906c.44141.71875.60156 1.5781.44531 2.4102l-2.3516 1.3438c-.60547-.27344-1.0312-.83203-1.1328-1.4883-.10156-.65625.13672-1.3164.62891-1.7617zm-64.12 44.46c1.457.28125.55859 3.1914-.83984 2.5742v.003906c-.46875-.38672-.64844-1.0273-.44531-1.5977.19922-.57422.73047-.96484 1.3398-.98047z"/>
</svg>
